<?xml version="1.0" encoding="utf-8"?>
<!-- Generator: Adobe Illustrator 21.1.0, SVG Export Plug-In . SVG Version: 6.00 Build 0)  -->
<svg version="1.1" id="Слой_1" xmlns="http://www.w3.org/2000/svg" xmlns:xlink="http://www.w3.org/1999/xlink" x="0px" y="0px"
	 viewBox="0 0 32 32" style="enable-background:new 0 0 32 32;" xml:space="preserve">
<style type="text/css">
	.st0{fill:none;}
	.st1{fill:none;stroke:#000000;stroke-width:1.5;}
	.st2{fill:none;stroke:#222222;stroke-width:1.5;stroke-linecap:round;}
</style>
<g>
	<path class="st0" d="M0,0h32v32H0V0z"/>
	<g transform="translate(4 3)">
		<path class="st1" d="M1.8,8.8h20.5c0.6,0,1,0.4,1,1v13.5c0,0.6-0.4,1-1,1H1.8c-0.6,0-1-0.4-1-1V9.8C0.8,9.2,1.2,8.8,1.8,8.8z"/>
		<path class="st2" d="M6.8,11.3V5.6c0-2.7,2.4-4.8,5.3-4.8c2.9,0,5.3,2.2,5.3,4.8v5.7"/>
		<g>
			<g>
				<g>
					<path d="M18.4,16.9C18.3,16.7,15.5,13,12,13s-6.3,3.7-6.4,3.9c-0.1,0.1-0.1,0.4,0,0.5c0.1,0.2,2.9,3.9,6.4,3.9s6.3-3.7,6.4-3.9
						C18.5,17.2,18.5,17,18.4,16.9z M12,20.4c-2.6,0-4.8-2.5-5.5-3.3c0.7-0.8,2.9-3.3,5.5-3.3c2.6,0,4.8,2.5,5.5,3.3
						C16.8,17.9,14.6,20.4,12,20.4z"/>
				</g>
			</g>
			<g>
				<g>
					<path d="M12,14.6c-1.4,0-2.6,1.1-2.6,2.6s1.1,2.6,2.6,2.6s2.6-1.1,2.6-2.6S13.4,14.6,12,14.6z M12,18.8c-0.9,0-1.7-0.8-1.7-1.7
						c0-0.9,0.8-1.7,1.7-1.7c0.9,0,1.7,0.8,1.7,1.7C13.7,18.1,12.9,18.8,12,18.8z"/>
				</g>
			</g>
			<g>
			</g>
			<g>
			</g>
			<g>
			</g>
			<g>
			</g>
			<g>
			</g>
			<g>
			</g>
			<g>
			</g>
			<g>
			</g>
			<g>
			</g>
			<g>
			</g>
			<g>
			</g>
			<g>
			</g>
			<g>
			</g>
			<g>
			</g>
			<g>
			</g>
		</g>
	</g>
</g>
</svg>
